<svg width="450" height="450" viewBox="0 0 450 450" fill="none" xmlns="http://www.w3.org/2000/svg">
<g clip-path="url(#clip0_2332_124)">
<rect width="450" height="450" rx="100" fill="#F6C5DA"/>
<g filter="url(#filter0_f_2332_124)">
<path fill-rule="evenodd" clip-rule="evenodd" d="M293.503 125C293.503 144.882 277.385 161 257.503 161C237.62 161 221.503 144.882 221.503 125C221.503 105.118 237.62 89 257.503 89C277.385 89 293.503 105.118 293.503 125ZM258.342 170.122C321.484 160.363 357.708 166.064 382.631 170.218C391.347 171.67 397.235 179.914 395.783 188.63C394.33 197.347 386.086 203.235 377.37 201.782C357.797 198.52 331.253 194.212 287.553 198.619C287.56 198.74 287.566 198.86 287.572 198.98L287.587 199.284C287.873 205.2 287.857 211.4 287.852 213.676C287.851 213.919 287.851 214.117 287.851 214.266V234.954C288.327 236.027 288.836 237.118 289.368 238.247L289.651 238.847L289.652 238.849C290.368 240.366 291.129 241.979 291.8 243.538C295.282 251.629 296.61 259.445 297.881 266.918C297.99 267.564 298.1 268.207 298.21 268.848C298.508 270.582 298.817 272.339 299.13 274.115C300.785 283.525 302.531 293.455 303.282 303.263C303.378 304.517 303.637 305.855 304.014 307.632L304.042 307.762L304.111 308.084C304.446 309.653 304.861 311.599 305.09 313.592C305.172 314.312 305.259 314.99 305.355 315.634C307.27 317.583 309.149 318.307 311.699 318.567C316.509 319.059 324.836 317.85 339.327 312.161C366.169 301.054 377.132 296.585 381.793 294.685C383.066 294.166 383.868 293.838 384.396 293.62C384.647 293.48 384.907 293.34 385.183 293.197C386.658 292.427 389.553 291.038 396.382 287.934C404.426 284.278 413.912 287.835 417.569 295.879C421.225 303.924 417.668 313.409 409.624 317.066C402.887 320.128 400.691 321.203 400.033 321.543L400.023 321.549C398.863 322.246 397.861 322.672 397.261 322.925C396.731 323.149 395.769 323.542 393.937 324.289L393.934 324.291C388.985 326.31 377.692 330.917 351.43 341.784L351.301 341.838L351.17 341.889C335.24 348.157 321.039 351.689 308.444 350.401C294.447 348.97 284.385 341.84 277.17 331.575C270.646 322.291 266.249 310.155 262.26 297.712C260.643 292.664 259.089 287.554 257.469 282.225C256.796 280.011 256.111 277.759 255.406 275.457C247.705 278.542 239.033 280.152 230.822 281.205C223.398 282.157 215.319 282.762 207.559 283.343L207.558 283.343L207.534 283.345L207.501 283.347L207.457 283.351L207.415 283.354C205.791 283.475 204.182 283.596 202.596 283.719C195.409 284.274 188.505 284.881 181.985 285.782C178.116 291 175.466 294.467 173.496 297.044L173.495 297.045L173.495 297.045L173.495 297.046L172.889 297.838C170.343 301.171 169.314 302.56 167.912 304.783C166.139 307.595 163.994 311.362 159.565 319.138L159.565 319.139L159.564 319.14C155.461 326.344 149.398 336.99 139.857 353.504C135.436 361.156 125.649 363.774 117.998 359.354C110.347 354.933 107.728 345.147 112.149 337.495C120.859 322.42 126.788 312.021 131.024 304.59L131.024 304.589C136.106 295.676 138.752 291.034 140.843 287.717C143.067 284.19 144.85 281.829 147.46 278.412L148.067 277.618C150.602 274.302 154.183 269.618 160.094 261.546L163.884 256.372L170.197 255.248C180.169 253.472 190.552 252.554 200.129 251.814C201.954 251.673 203.74 251.539 205.492 251.407L205.492 251.407L207.175 251.281C212.517 250.344 217.529 249.404 222.402 247.987C223.761 247.591 224.849 247.303 225.843 247.041C226.177 246.823 226.51 246.61 226.839 246.404C228.54 245.335 230.614 244.14 232.461 243.075L232.462 243.075C233.404 242.532 234.286 242.024 235.03 241.583C236.243 240.865 237.152 240.296 237.762 239.863C238.001 239.415 238.241 238.984 238.479 238.57C237.246 234.954 236.118 231.165 235.163 227.453C233.46 220.831 232.082 213.598 231.894 207.563C231.866 206.64 231.858 205.591 231.907 204.463C193.809 207.015 176.511 205.151 161.861 203.571C154.214 202.747 147.288 202 138.503 202C129.666 202 122.503 194.837 122.503 186C122.503 177.163 129.666 170 138.503 170C151.623 170 159.885 170.947 168.197 171.899L168.197 171.899C184.859 173.808 201.727 175.741 258.342 170.122ZM384.897 293.409C384.899 293.409 384.884 293.415 384.852 293.429C384.88 293.417 384.896 293.41 384.897 293.409Z" fill="#FF00A6" fill-opacity="0.6"/>
</g>
<g filter="url(#filter1_f_2332_124)">
<path fill-rule="evenodd" clip-rule="evenodd" d="M278.503 125C278.503 144.882 262.385 161 242.503 161C222.62 161 206.503 144.882 206.503 125C206.503 105.118 222.62 89 242.503 89C262.385 89 278.503 105.118 278.503 125ZM243.342 170.122C306.484 160.363 342.708 166.064 367.631 170.218C376.347 171.67 382.235 179.914 380.783 188.63C379.33 197.347 371.086 203.235 362.37 201.782C342.797 198.52 316.253 194.212 272.553 198.619C272.56 198.74 272.566 198.86 272.572 198.98L272.587 199.284C272.873 205.2 272.857 211.4 272.852 213.676C272.851 213.919 272.851 214.117 272.851 214.266V234.954C273.327 236.027 273.836 237.118 274.368 238.247L274.651 238.847L274.652 238.849C275.368 240.366 276.129 241.979 276.8 243.538C280.282 251.629 281.61 259.445 282.881 266.918C282.99 267.564 283.1 268.207 283.21 268.848C283.508 270.582 283.817 272.339 284.13 274.115C285.785 283.525 287.531 293.455 288.282 303.263C288.378 304.517 288.637 305.855 289.014 307.632L289.042 307.762L289.111 308.084C289.446 309.653 289.861 311.599 290.09 313.592C290.172 314.312 290.259 314.99 290.355 315.634C292.27 317.583 294.149 318.307 296.699 318.567C301.509 319.059 309.836 317.85 324.327 312.161C351.169 301.054 362.132 296.585 366.793 294.685C368.066 294.166 368.868 293.838 369.396 293.62C369.647 293.48 369.907 293.34 370.183 293.197C371.658 292.427 374.553 291.038 381.382 287.934C389.426 284.278 398.912 287.835 402.569 295.879C406.225 303.924 402.668 313.409 394.624 317.066C387.887 320.128 385.691 321.203 385.033 321.543L385.023 321.549C383.863 322.246 382.861 322.672 382.261 322.925C381.731 323.149 380.769 323.542 378.937 324.289L378.934 324.291C373.985 326.31 362.692 330.917 336.43 341.784L336.301 341.838L336.17 341.889C320.24 348.157 306.039 351.689 293.444 350.401C279.447 348.97 269.385 341.84 262.17 331.575C255.646 322.291 251.249 310.155 247.26 297.712C245.643 292.664 244.089 287.554 242.469 282.225C241.796 280.011 241.111 277.759 240.406 275.457C232.705 278.542 224.033 280.152 215.822 281.205C208.398 282.157 200.319 282.762 192.559 283.343L192.558 283.343L192.534 283.345L192.501 283.347L192.457 283.351L192.415 283.354C190.791 283.475 189.182 283.596 187.596 283.719C180.409 284.274 173.505 284.881 166.985 285.782C163.116 291 160.466 294.467 158.496 297.044L158.495 297.045L158.495 297.045L158.495 297.046L157.889 297.838C155.343 301.171 154.314 302.56 152.912 304.783C151.139 307.595 148.994 311.362 144.565 319.138L144.565 319.139L144.564 319.14C140.461 326.344 134.398 336.99 124.857 353.504C120.436 361.156 110.649 363.774 102.998 359.354C95.347 354.933 92.7281 345.147 97.1488 337.495C105.859 322.42 111.788 312.021 116.024 304.59L116.024 304.589C121.106 295.676 123.752 291.034 125.843 287.717C128.067 284.19 129.85 281.829 132.46 278.412L133.067 277.618C135.602 274.302 139.183 269.618 145.094 261.546L148.884 256.372L155.197 255.248C165.169 253.472 175.552 252.554 185.129 251.814C186.954 251.673 188.74 251.539 190.492 251.407L190.492 251.407L192.175 251.281C197.517 250.344 202.529 249.404 207.402 247.987C208.761 247.591 209.849 247.303 210.843 247.041C211.177 246.823 211.51 246.61 211.839 246.404C213.54 245.335 215.614 244.14 217.461 243.075L217.462 243.075C218.404 242.532 219.286 242.024 220.03 241.583C221.243 240.865 222.152 240.296 222.762 239.863C223.001 239.415 223.241 238.984 223.479 238.57C222.246 234.954 221.118 231.165 220.163 227.453C218.46 220.831 217.082 213.598 216.894 207.563C216.866 206.64 216.858 205.591 216.907 204.463C178.809 207.015 161.511 205.151 146.861 203.571C139.214 202.747 132.288 202 123.503 202C114.666 202 107.503 194.837 107.503 186C107.503 177.163 114.666 170 123.503 170C136.623 170 144.885 170.947 153.197 171.899L153.197 171.899C169.859 173.808 186.727 175.741 243.342 170.122ZM369.897 293.409C369.899 293.409 369.884 293.415 369.852 293.429C369.88 293.417 369.896 293.41 369.897 293.409Z" fill="#C64FBF" fill-opacity="0.7"/>
</g>
<g filter="url(#filter2_f_2332_124)">
<path fill-rule="evenodd" clip-rule="evenodd" d="M263.503 125C263.503 144.882 247.385 161 227.503 161C207.62 161 191.503 144.882 191.503 125C191.503 105.118 207.62 89 227.503 89C247.385 89 263.503 105.118 263.503 125ZM228.342 170.122C291.484 160.363 327.708 166.064 352.631 170.218C361.347 171.67 367.235 179.914 365.783 188.63C364.33 197.347 356.086 203.235 347.37 201.782C327.797 198.52 301.253 194.212 257.553 198.619C257.56 198.74 257.566 198.86 257.572 198.98L257.587 199.284C257.873 205.2 257.857 211.4 257.852 213.676C257.851 213.919 257.851 214.117 257.851 214.266V234.954C258.327 236.027 258.836 237.118 259.368 238.247L259.651 238.847L259.652 238.849C260.368 240.366 261.129 241.979 261.8 243.538C265.282 251.629 266.61 259.445 267.881 266.918C267.99 267.564 268.1 268.207 268.21 268.848C268.508 270.582 268.817 272.339 269.13 274.115C270.785 283.525 272.531 293.455 273.282 303.263C273.378 304.517 273.637 305.855 274.014 307.632L274.042 307.762L274.111 308.084C274.446 309.653 274.861 311.599 275.09 313.592C275.172 314.312 275.259 314.99 275.355 315.634C277.27 317.583 279.149 318.307 281.699 318.567C286.509 319.059 294.836 317.85 309.327 312.161C336.169 301.054 347.132 296.585 351.793 294.685C353.066 294.166 353.868 293.838 354.396 293.62C354.647 293.48 354.907 293.34 355.183 293.197C356.658 292.427 359.553 291.038 366.382 287.934C374.426 284.278 383.912 287.835 387.569 295.879C391.225 303.924 387.668 313.409 379.624 317.066C372.887 320.128 370.691 321.203 370.033 321.543L370.023 321.549C368.863 322.246 367.861 322.672 367.261 322.925C366.731 323.149 365.769 323.542 363.937 324.289L363.934 324.291C358.985 326.31 347.692 330.917 321.43 341.784L321.301 341.838L321.17 341.889C305.24 348.157 291.039 351.689 278.444 350.401C264.447 348.97 254.385 341.84 247.17 331.575C240.646 322.291 236.249 310.155 232.26 297.712C230.643 292.664 229.089 287.554 227.469 282.225C226.796 280.011 226.111 277.759 225.406 275.457C217.705 278.542 209.033 280.152 200.822 281.205C193.398 282.157 185.319 282.762 177.559 283.343L177.558 283.343L177.534 283.345L177.501 283.347L177.457 283.351L177.415 283.354C175.791 283.475 174.182 283.596 172.596 283.719C165.409 284.274 158.505 284.881 151.985 285.782C148.116 291 145.466 294.467 143.496 297.044L143.495 297.045L143.495 297.045L143.495 297.046L142.889 297.838C140.343 301.171 139.314 302.56 137.912 304.783C136.139 307.595 133.994 311.362 129.565 319.138L129.565 319.139L129.564 319.14C125.461 326.344 119.398 336.99 109.857 353.504C105.436 361.156 95.6495 363.774 87.9982 359.354C80.347 354.933 77.7281 345.147 82.1488 337.495C90.859 322.42 96.7877 312.021 101.024 304.59L101.024 304.589C106.106 295.676 108.752 291.034 110.843 287.717C113.067 284.19 114.85 281.829 117.46 278.412L118.067 277.618C120.602 274.302 124.183 269.618 130.094 261.546L133.884 256.372L140.197 255.248C150.169 253.472 160.552 252.554 170.129 251.814C171.954 251.673 173.74 251.539 175.492 251.407L175.492 251.407L177.175 251.281C182.517 250.344 187.529 249.404 192.402 247.987C193.761 247.591 194.849 247.303 195.843 247.041C196.177 246.823 196.51 246.61 196.839 246.404C198.54 245.335 200.614 244.14 202.461 243.075L202.462 243.075C203.404 242.532 204.286 242.024 205.03 241.583C206.243 240.865 207.152 240.296 207.762 239.863C208.001 239.415 208.241 238.984 208.479 238.57C207.246 234.954 206.118 231.165 205.163 227.453C203.46 220.831 202.082 213.598 201.894 207.563C201.866 206.64 201.858 205.591 201.907 204.463C163.809 207.015 146.511 205.151 131.861 203.571C124.214 202.747 117.288 202 108.503 202C99.6661 202 92.5027 194.837 92.5027 186C92.5027 177.163 99.6661 170 108.503 170C121.623 170 129.885 170.947 138.197 171.899L138.197 171.899C154.859 173.808 171.727 175.741 228.342 170.122ZM354.897 293.409C354.899 293.409 354.884 293.415 354.852 293.429C354.88 293.417 354.896 293.41 354.897 293.409Z" fill="#B432B8" fill-opacity="0.8"/>
</g>
<g filter="url(#filter3_f_2332_124)">
<path fill-rule="evenodd" clip-rule="evenodd" d="M248.503 125C248.503 144.882 232.385 161 212.503 161C192.62 161 176.503 144.882 176.503 125C176.503 105.118 192.62 89 212.503 89C232.385 89 248.503 105.118 248.503 125ZM213.342 170.122C276.484 160.363 312.708 166.064 337.631 170.218C346.347 171.67 352.235 179.914 350.783 188.63C349.33 197.347 341.086 203.235 332.37 201.782C312.797 198.52 286.253 194.212 242.553 198.619C242.56 198.74 242.566 198.86 242.572 198.98L242.587 199.284C242.873 205.2 242.857 211.4 242.852 213.676C242.851 213.919 242.851 214.117 242.851 214.266V234.954C243.327 236.027 243.836 237.118 244.368 238.247L244.651 238.847L244.652 238.849C245.368 240.366 246.129 241.979 246.8 243.538C250.282 251.629 251.61 259.445 252.881 266.918C252.99 267.564 253.1 268.207 253.21 268.848C253.508 270.582 253.817 272.339 254.13 274.115C255.785 283.525 257.531 293.455 258.282 303.263C258.378 304.517 258.637 305.855 259.014 307.632L259.042 307.762L259.111 308.084C259.446 309.653 259.861 311.599 260.09 313.592C260.172 314.312 260.259 314.99 260.355 315.634C262.27 317.583 264.149 318.307 266.699 318.567C271.509 319.059 279.836 317.85 294.327 312.161C321.169 301.054 332.132 296.585 336.793 294.685C338.066 294.166 338.868 293.838 339.396 293.62C339.647 293.48 339.907 293.34 340.183 293.197C341.658 292.427 344.553 291.038 351.382 287.934C359.426 284.278 368.912 287.835 372.569 295.879C376.225 303.924 372.668 313.409 364.624 317.066C357.887 320.128 355.691 321.203 355.033 321.543L355.023 321.549C353.863 322.246 352.861 322.672 352.261 322.925C351.731 323.149 350.769 323.542 348.937 324.289L348.934 324.291C343.985 326.31 332.692 330.917 306.43 341.784L306.301 341.838L306.17 341.889C290.24 348.157 276.039 351.689 263.444 350.401C249.447 348.97 239.385 341.84 232.17 331.575C225.646 322.291 221.249 310.155 217.26 297.712C215.643 292.664 214.089 287.554 212.469 282.225C211.796 280.011 211.111 277.759 210.406 275.457C202.705 278.542 194.033 280.152 185.822 281.205C178.398 282.157 170.319 282.762 162.559 283.343L162.558 283.343L162.534 283.345L162.501 283.347L162.457 283.351L162.415 283.354C160.791 283.475 159.182 283.596 157.596 283.719C150.409 284.274 143.505 284.881 136.985 285.782C133.116 291 130.466 294.467 128.496 297.044L128.495 297.045L128.495 297.045L128.495 297.046L127.889 297.838C125.343 301.171 124.314 302.56 122.912 304.783C121.139 307.595 118.994 311.362 114.565 319.138L114.565 319.139L114.564 319.14C110.461 326.344 104.398 336.99 94.8565 353.504C90.4358 361.156 80.6495 363.774 72.9982 359.354C65.347 354.933 62.7281 345.147 67.1488 337.495C75.859 322.42 81.7877 312.021 86.0239 304.59L86.0244 304.589C91.1056 295.676 93.7519 291.034 95.8429 287.717C98.0666 284.19 99.8495 281.829 102.46 278.412L103.067 277.618C105.602 274.302 109.183 269.618 115.094 261.546L118.884 256.372L125.197 255.248C135.169 253.472 145.552 252.554 155.129 251.814C156.954 251.673 158.74 251.539 160.492 251.407L160.492 251.407L162.175 251.281C167.517 250.344 172.529 249.404 177.402 247.987C178.761 247.591 179.849 247.303 180.843 247.041C181.177 246.823 181.51 246.61 181.839 246.404C183.54 245.335 185.614 244.14 187.461 243.075L187.462 243.075C188.404 242.532 189.286 242.024 190.03 241.583C191.243 240.865 192.152 240.296 192.762 239.863C193.001 239.415 193.241 238.984 193.479 238.57C192.246 234.954 191.118 231.165 190.163 227.453C188.46 220.831 187.082 213.598 186.894 207.563C186.866 206.64 186.858 205.591 186.907 204.463C148.809 207.015 131.511 205.151 116.861 203.571C109.214 202.747 102.288 202 93.5027 202C84.6661 202 77.5027 194.837 77.5027 186C77.5027 177.163 84.6661 170 93.5027 170C106.623 170 114.885 170.947 123.197 171.899L123.197 171.899C139.859 173.808 156.727 175.741 213.342 170.122ZM339.897 293.409C339.899 293.409 339.884 293.415 339.852 293.429C339.88 293.417 339.896 293.41 339.897 293.409Z" fill="#9B1DAB" fill-opacity="0.9"/>
</g>
<path fill-rule="evenodd" clip-rule="evenodd" d="M233.503 125C233.503 144.882 217.385 161 197.503 161C177.62 161 161.503 144.882 161.503 125C161.503 105.118 177.62 89 197.503 89C217.385 89 233.503 105.118 233.503 125ZM198.342 170.122C261.484 160.363 297.708 166.064 322.631 170.218C331.347 171.67 337.235 179.914 335.783 188.63C334.33 197.347 326.086 203.235 317.37 201.782C297.797 198.52 271.253 194.212 227.553 198.619C227.56 198.74 227.566 198.86 227.572 198.98L227.587 199.284C227.873 205.2 227.857 211.4 227.852 213.676C227.851 213.919 227.851 214.117 227.851 214.266V234.954C228.327 236.027 228.836 237.118 229.368 238.247L229.651 238.847L229.652 238.849C230.368 240.366 231.129 241.979 231.8 243.538C235.282 251.629 236.61 259.445 237.881 266.918C237.99 267.564 238.1 268.207 238.21 268.848C238.508 270.582 238.817 272.339 239.13 274.115C240.785 283.525 242.531 293.455 243.282 303.263C243.378 304.517 243.637 305.855 244.014 307.632L244.042 307.762L244.111 308.084C244.446 309.653 244.861 311.599 245.09 313.592C245.172 314.312 245.259 314.99 245.355 315.634C247.27 317.583 249.149 318.307 251.699 318.567C256.509 319.059 264.836 317.85 279.327 312.161C306.169 301.054 317.132 296.585 321.793 294.685C323.066 294.166 323.868 293.838 324.396 293.62C324.647 293.48 324.907 293.34 325.183 293.197C326.658 292.427 329.553 291.038 336.382 287.934C344.426 284.278 353.912 287.835 357.569 295.879C361.225 303.924 357.668 313.409 349.624 317.066C342.887 320.128 340.691 321.203 340.033 321.543L340.023 321.549C338.863 322.246 337.861 322.672 337.261 322.925C336.731 323.149 335.769 323.542 333.937 324.289L333.934 324.291C328.985 326.31 317.692 330.917 291.43 341.784L291.301 341.838L291.17 341.889C275.24 348.157 261.039 351.689 248.444 350.401C234.447 348.97 224.385 341.84 217.17 331.575C210.646 322.291 206.249 310.155 202.26 297.712C200.643 292.664 199.089 287.554 197.469 282.225C196.796 280.011 196.111 277.759 195.406 275.457C187.705 278.542 179.033 280.152 170.822 281.205C163.398 282.157 155.319 282.762 147.559 283.343L147.558 283.343L147.534 283.345L147.501 283.347L147.457 283.351L147.415 283.354C145.791 283.475 144.182 283.596 142.596 283.719C135.409 284.274 128.505 284.881 121.985 285.782C118.116 291 115.466 294.467 113.496 297.044L113.495 297.045L113.495 297.045L113.495 297.046L112.889 297.838C110.343 301.171 109.314 302.56 107.912 304.783C106.139 307.595 103.994 311.362 99.5652 319.138L99.565 319.139L99.5645 319.14C95.4613 326.344 89.3984 336.99 79.8565 353.504C75.4358 361.156 65.6495 363.774 57.9982 359.354C50.347 354.933 47.7281 345.147 52.1488 337.495C60.859 322.42 66.7877 312.021 71.0239 304.59L71.0244 304.589C76.1056 295.676 78.7519 291.034 80.8429 287.717C83.0666 284.19 84.8495 281.829 87.4598 278.412L88.0667 277.618C90.6015 274.302 94.1827 269.618 100.094 261.546L103.884 256.372L110.197 255.248C120.169 253.472 130.552 252.554 140.129 251.814C141.954 251.673 143.74 251.539 145.492 251.407L145.492 251.407L147.175 251.281C152.517 250.344 157.529 249.404 162.402 247.987C163.761 247.591 164.849 247.303 165.843 247.041C166.177 246.823 166.51 246.61 166.839 246.404C168.54 245.335 170.614 244.14 172.461 243.075L172.462 243.075C173.404 242.532 174.286 242.024 175.03 241.583C176.243 240.865 177.152 240.296 177.762 239.863C178.001 239.415 178.241 238.984 178.479 238.57C177.246 234.954 176.118 231.165 175.163 227.453C173.46 220.831 172.082 213.598 171.894 207.563C171.866 206.64 171.858 205.591 171.907 204.463C133.809 207.015 116.511 205.151 101.861 203.571C94.2136 202.747 87.2882 202 78.5027 202C69.6661 202 62.5027 194.837 62.5027 186C62.5027 177.163 69.6661 170 78.5027 170C91.6232 170 99.8847 170.947 108.197 171.899L108.197 171.899C124.859 173.808 141.727 175.741 198.342 170.122ZM324.897 293.409C324.899 293.409 324.884 293.415 324.852 293.429C324.88 293.417 324.896 293.41 324.897 293.409Z" fill="#84089D"/>
</g>
<defs>
<filter id="filter0_f_2332_124" x="90" y="69" width="349.007" height="312.503" filterUnits="userSpaceOnUse" color-interpolation-filters="sRGB">
<feFlood flood-opacity="0" result="BackgroundImageFix"/>
<feBlend mode="normal" in="SourceGraphic" in2="BackgroundImageFix" result="shape"/>
<feGaussianBlur stdDeviation="10" result="effect1_foregroundBlur_2332_124"/>
</filter>
<filter id="filter1_f_2332_124" x="80" y="74" width="339.007" height="302.503" filterUnits="userSpaceOnUse" color-interpolation-filters="sRGB">
<feFlood flood-opacity="0" result="BackgroundImageFix"/>
<feBlend mode="normal" in="SourceGraphic" in2="BackgroundImageFix" result="shape"/>
<feGaussianBlur stdDeviation="7.5" result="effect1_foregroundBlur_2332_124"/>
</filter>
<filter id="filter2_f_2332_124" x="70" y="79" width="329.007" height="292.503" filterUnits="userSpaceOnUse" color-interpolation-filters="sRGB">
<feFlood flood-opacity="0" result="BackgroundImageFix"/>
<feBlend mode="normal" in="SourceGraphic" in2="BackgroundImageFix" result="shape"/>
<feGaussianBlur stdDeviation="5" result="effect1_foregroundBlur_2332_124"/>
</filter>
<filter id="filter3_f_2332_124" x="60" y="84" width="319.007" height="282.503" filterUnits="userSpaceOnUse" color-interpolation-filters="sRGB">
<feFlood flood-opacity="0" result="BackgroundImageFix"/>
<feBlend mode="normal" in="SourceGraphic" in2="BackgroundImageFix" result="shape"/>
<feGaussianBlur stdDeviation="2.5" result="effect1_foregroundBlur_2332_124"/>
</filter>
<clipPath id="clip0_2332_124">
<rect width="450" height="450" fill="white"/>
</clipPath>
</defs>
</svg>
